<svg xmlns="http://www.w3.org/2000/svg" width="24" height="24" viewBox="0.0 0.0 24.0 24.0">
  <path d="M 20.60 12.00 L 20.38 13.91 L 19.75 15.73 L 18.72 17.36 L 17.36 18.72 L 15.73 19.75 L 13.91 20.38 L 12.00 20.60 L 10.09 20.38 L 8.27 19.75 L 6.64 18.72 L 5.28 17.36 L 4.25 15.73 L 3.62 13.91 L 3.40 12.00 L 3.62 10.09 L 4.25 8.27 L 5.28 6.64 L 6.64 5.28 L 8.27 4.25 L 10.09 3.62 L 12.00 3.40 L 13.91 3.62 L 15.73 4.25 L 17.36 5.28 L 18.72 6.64 L 19.75 8.27 L 20.38 10.09 Z" fill="none" stroke="#4C8DFF" stroke-width="1.75" stroke-linecap="round" stroke-linejoin="round"/>
  <path d="M 12.00 3.40 L 10.09 3.62 L 8.27 4.25 L 6.64 5.28 L 5.28 6.64 L 4.25 8.27 L 3.62 10.09 L 3.40 12.00 L 3.62 13.91 L 4.25 15.73 L 5.28 17.36 L 6.64 18.72 L 8.27 19.75 L 10.09 20.38 L 12.00 20.60" fill="none" stroke="#4C8DFF" stroke-width="1.75" stroke-linecap="round" stroke-linejoin="round"/>
  <path d="M 16.30 12.00 L 16.15 13.11 L 15.72 14.15 L 15.04 15.04 L 14.15 15.72 L 13.11 16.15 L 12.00 16.30 L 10.89 16.15 L 9.85 15.72 L 8.96 15.04 L 8.28 14.15 L 7.85 13.11 L 7.70 12.00 L 7.85 10.89 L 8.28 9.85 L 8.96 8.96 L 9.85 8.28 L 10.89 7.85 L 12.00 7.70 L 13.11 7.85 L 14.15 8.28 L 15.04 8.96 L 15.72 9.85 L 16.15 10.89 Z" fill="#4C8DFF" stroke="none"/>
</svg>
