<svg xmlns="http://www.w3.org/2000/svg" width="24" height="24" viewBox="0.0 0.0 24.0 24.0">
  <path d="M 12.00 3.00 L 17.40 10.40 L 17.40 14.20 L 14.60 17.60 L 9.40 17.60 L 6.60 14.20 L 6.60 10.40 L 12.00 3.00" fill="none" stroke="#4C8DFF" stroke-width="1.75" stroke-linecap="round" stroke-linejoin="round"/>
  <path d="M 15.00 12.60 L 14.90 13.38 L 14.60 14.10 L 14.12 14.72 L 13.50 15.20 L 12.78 15.50 L 12.00 15.60 L 11.22 15.50 L 10.50 15.20 L 9.88 14.72 L 9.40 14.10 L 9.10 13.38 L 9.00 12.60 L 9.10 11.82 L 9.40 11.10 L 9.88 10.48 L 10.50 10.00 L 11.22 9.70 L 12.00 9.60 L 12.78 9.70 L 13.50 10.00 L 14.12 10.48 L 14.60 11.10 L 14.90 11.82 Z" fill="#4C8DFF" stroke="none"/>
</svg>
