<svg xmlns="http://www.w3.org/2000/svg" width="24" height="24" viewBox="0.0 0.0 24.0 24.0">
  <path d="M 5.28 7.30 L 5.99 6.42 L 6.81 5.65 L 7.72 5.00 L 8.72 4.48 L 9.78 4.11 L 10.88 3.88 L 12.00 3.80 L 13.12 3.88 L 14.22 4.11 L 15.28 4.48 L 16.28 5.00 L 17.19 5.65 L 18.01 6.42 L 18.72 7.30" fill="none" stroke="#4C8DFF" stroke-width="1.75" stroke-linecap="round" stroke-linejoin="round"/>
  <path d="M 12.00 12.00 L 16.40 7.60" fill="none" stroke="#4C8DFF" stroke-width="1.75" stroke-linecap="round" stroke-linejoin="round"/>
  <path d="M 13.70 12.00 L 13.64 12.44 L 13.47 12.85 L 13.20 13.20 L 12.85 13.47 L 12.44 13.64 L 12.00 13.70 L 11.56 13.64 L 11.15 13.47 L 10.80 13.20 L 10.53 12.85 L 10.36 12.44 L 10.30 12.00 L 10.36 11.56 L 10.53 11.15 L 10.80 10.80 L 11.15 10.53 L 11.56 10.36 L 12.00 10.30 L 12.44 10.36 L 12.85 10.53 L 13.20 10.80 L 13.47 11.15 L 13.64 11.56 Z" fill="#4C8DFF" stroke="none"/>
  <path d="M 5.00 17.60 L 7.00 16.00" fill="none" stroke="#4C8DFF" stroke-width="1.75" stroke-linecap="round" stroke-linejoin="round"/>
  <path d="M 19.00 17.60 L 17.00 16.00" fill="none" stroke="#4C8DFF" stroke-width="1.75" stroke-linecap="round" stroke-linejoin="round"/>
</svg>
