<svg xmlns="http://www.w3.org/2000/svg" width="24" height="24" viewBox="0.0 0.0 24.0 24.0">
  <path d="M 20.60 12.00 L 20.38 13.91 L 19.75 15.73 L 18.72 17.36 L 17.36 18.72 L 15.73 19.75 L 13.91 20.38 L 12.00 20.60 L 10.09 20.38 L 8.27 19.75 L 6.64 18.72 L 5.28 17.36 L 4.25 15.73 L 3.62 13.91 L 3.40 12.00 L 3.62 10.09 L 4.25 8.27 L 5.28 6.64 L 6.64 5.28 L 8.27 4.25 L 10.09 3.62 L 12.00 3.40 L 13.91 3.62 L 15.73 4.25 L 17.36 5.28 L 18.72 6.64 L 19.75 8.27 L 20.38 10.09 Z" fill="none" stroke="#4C8DFF" stroke-width="1.75" stroke-linecap="round" stroke-linejoin="round"/>
  <path d="M 6.86 9.52 L 6.74 8.13 L 7.33 6.86 L 8.48 6.06 L 9.87 5.94 L 11.14 6.53 L 11.94 7.68 L 12.06 9.07 L 11.47 10.34" fill="none" stroke="#4C8DFF" stroke-width="1.75" stroke-linecap="round" stroke-linejoin="round"/>
  <path d="M 12.10 11.00 L 12.10 11.20" fill="none" stroke="#4C8DFF" stroke-width="1.75" stroke-linecap="round" stroke-linejoin="round"/>
  <path d="M 12.00 13.60 L 12.00 16.40" fill="none" stroke="#4C8DFF" stroke-width="1.75" stroke-linecap="round" stroke-linejoin="round"/>
</svg>
