<svg xmlns="http://www.w3.org/2000/svg" width="24" height="24" viewBox="0.0 0.0 24.0 24.0">
  <path d="M 12.00 3.40 L 21.20 19.60 L 2.80 19.60 L 12.00 3.40 L 12.00 3.40" fill="none" stroke="#4C8DFF" stroke-width="1.75" stroke-linecap="round" stroke-linejoin="round"/>
  <path d="M 12.00 9.20 L 12.00 14.20" fill="none" stroke="#4C8DFF" stroke-width="1.75" stroke-linecap="round" stroke-linejoin="round"/>
  <path d="M 13.15 16.90 L 13.11 17.20 L 13.00 17.48 L 12.81 17.71 L 12.57 17.90 L 12.30 18.01 L 12.00 18.05 L 11.70 18.01 L 11.43 17.90 L 11.19 17.71 L 11.00 17.48 L 10.89 17.20 L 10.85 16.90 L 10.89 16.60 L 11.00 16.32 L 11.19 16.09 L 11.43 15.90 L 11.70 15.79 L 12.00 15.75 L 12.30 15.79 L 12.57 15.90 L 12.81 16.09 L 13.00 16.32 L 13.11 16.60 Z" fill="#4C8DFF" stroke="none"/>
</svg>
